<svg version="1.1" id="yoke-logo" xmlns="http://www.w3.org/2000/svg" xmlns:xlink="http://www.w3.org/1999/xlink" x="0px" y="0px"
   viewBox="0 0 178.1 206" enable-background="new 0 0 178.1 206" xml:space="preserve">
<polygon fill="#FCE15B" points="89.3,206 0.2,154.3 0,51.3 88.9,0 178,51.7 178.2,154.7 "/>
<g>
  <g>
    <g>
      <path fill="#E8E8E8" d="M172.2,96.6c-2.4-5.6-6.4-13.1-12-16.6c-3.4-2.1-5.9-3-8.6-3.3c-5.9-5.3-13.4-8.3-21.4-8.3
        c-6.2,0-12,1.7-18,5.1c-2.5,1.5-5,2.7-7.3,3.8c-1,0.3-2.1,0.8-3.3,1.4c-4.6,1.8-8.9,2.7-12.5,2.7c-3.7,0-7.9-0.9-12.5-2.7
        c-1.2-0.6-2.3-1-3.3-1.4c-2.4-1.1-4.8-2.3-7.3-3.8c-5.9-3.4-11.8-5.1-18-5.1c-8,0-15.5,2.9-21.4,8.3c-2.7,0.3-5.2,1.2-8.6,3.3
        C12.5,83.5,8.4,91,6,96.6c-0.2,0.5-0.2,1,0,1.5c1.1,2.3,4.6,9.4,19.6,13.3c3.7,1,6,2.3,7.1,3c-0.6,2-2.2,6.7-5.9,12.5
        c-1.3,2.1-1,4,0,4.9c0.5,0.5,1.1,0.7,1.7,0.7c0.5,0,1.1-0.2,1.6-0.5c3.8-2.6,6.3-5.7,8-8.4c0.1,1.1,0.1,2.1,0.2,3.1
        c0.7,10.4,1.2,17.3,9.8,17.3c0.1,0,0.3,0,0.4-0.1c0.1,0,0.3,0.1,0.4,0.1c8.6,0,9.1-6.9,9.8-17.3c0.1-1,0.1-2,0.2-3.1
        c1.7,2.7,4.2,5.8,8,8.4c0.5,0.3,1.1,0.5,1.6,0.5c0.6,0,1.2-0.2,1.7-0.7c0.9-0.9,1.3-2.8,0-4.9c-3.8-5.9-5.4-10.5-5.9-12.5
        c1-0.7,3.1-1.8,6.4-2.8c0,0,0.1,0.1,0.1,0.1c6.1,3.8,12.1,5.7,18.5,5.7c6.4,0,12.5-1.9,18.5-5.7c0,0,0.1-0.1,0.1-0.1
        c3.3,0.9,5.4,2.1,6.4,2.8c-0.6,2-2.2,6.7-5.9,12.5c-1.3,2.1-1,4,0,4.9c0.5,0.5,1.1,0.7,1.7,0.7c0.5,0,1.1-0.2,1.6-0.5
        c3.8-2.6,6.3-5.7,8-8.4c0.1,1.1,0.1,2.1,0.2,3.1c0.7,10.4,1.2,17.3,9.8,17.3c0.1,0,0.3,0,0.4-0.1c0.1,0,0.3,0.1,0.4,0.1
        c8.6,0,9.1-6.9,9.8-17.3c0.1-1,0.1-2,0.2-3.1c1.7,2.7,4.2,5.8,8,8.4c0.5,0.3,1.1,0.5,1.6,0.5c0.6,0,1.2-0.2,1.7-0.7
        c0.9-0.9,1.3-2.8,0-4.9c-3.8-5.9-5.4-10.5-5.9-12.5c1.1-0.7,3.4-2,7.1-3c15-3.9,18.4-11,19.6-13.3
        C172.4,97.7,172.4,97.1,172.2,96.6z"/>
    </g>
  </g>
</g>
<g>
  <g>
    <path fill="#206B9E" d="M38.2,96.8l-4.3-1.9c-0.5,1.2,0,2.6,1.2,3.1C36.2,98.5,37.6,98,38.2,96.8z"/>
    <path fill="#206B9E" d="M55.2,107.7c-0.1,0-1.6-0.6-3.2-0.9c-0.8-0.2-1.6-0.3-2.2-0.3c-0.3,0-0.6,0-0.7-0.1c-0.2,0-0.3,0-0.3,0
      c0,0-0.1,0-0.1,0c-0.1,0-0.2,0-0.3,0.1c-0.1,0-0.3-0.1-0.5-0.1c0,0-0.1,0-0.3,0c-0.2,0-0.4,0-0.7,0.1c-0.6,0.1-1.4,0.2-2.2,0.3
      c-1.6,0.3-3.1,0.9-3.2,0.9c-0.6,0.2-0.9,0.9-0.6,1.5c0.2,0.6,0.9,0.9,1.5,0.6c-0.1,0,1.3-0.4,2.7-0.5c0.7-0.1,1.4-0.1,1.9-0.1
      c0.2,0,0.5,0,0.7,0c0.2,0,0.3,0,0.3,0c0,0,0.1,0,0.1,0c0.1,0,0.2,0,0.3-0.1c0.1,0,0.3,0.1,0.4,0.1c0,0,0.1,0,0.3,0
      c0.2,0,0.4,0,0.7,0c0.5,0,1.2,0,1.9,0.1c1.4,0.1,2.8,0.5,2.7,0.5c0.6,0.2,1.2-0.1,1.5-0.6C56.1,108.6,55.8,107.9,55.2,107.7z"/>
    <path fill="#206B9E" d="M54.1,112.8c-0.1,0-1.3-0.5-2.6-0.8c-0.7-0.1-1.3-0.2-1.8-0.3c-0.2,0-0.4,0-0.6,0c-0.1,0-0.2,0-0.2,0
      c0,0-0.1,0-0.1,0c-0.1,0-0.2,0-0.3,0.1c-0.1,0-0.3-0.1-0.5-0.1c0,0-0.1,0-0.2,0c-0.1,0-0.3,0-0.6,0c-0.5,0-1.2,0.1-1.8,0.3
      c-1.3,0.2-2.6,0.7-2.6,0.8c-0.6,0.2-0.8,0.9-0.6,1.4c0.2,0.6,0.9,0.8,1.4,0.6c-0.1,0,1-0.3,2.2-0.4c0.6-0.1,1.2-0.1,1.6-0.1
      c0.2,0,0.4,0,0.5,0c0.1,0,0.2,0,0.2,0c0,0,0.1,0,0.1,0c0.1,0,0.2,0,0.3-0.1c0.1,0,0.3,0.1,0.4,0.1c0,0,0.1,0,0.2,0
      c0.1,0,0.3,0,0.5,0c0.4,0,1,0,1.6,0.1c1.1,0.1,2.2,0.4,2.2,0.4c0.6,0.2,1.2,0,1.4-0.6C54.9,113.7,54.7,113,54.1,112.8z"/>
    <path fill="#206B9E" d="M61.7,98c1.2-0.5,1.7-1.9,1.2-3.1l-4.3,1.9C59.1,98,60.5,98.5,61.7,98z"/>
    <path fill="#206B9E" d="M136.6,107.7c-0.1,0-1.6-0.6-3.2-0.9c-0.8-0.2-1.6-0.3-2.2-0.3c-0.3,0-0.6,0-0.7-0.1c-0.2,0-0.3,0-0.3,0
      c0,0-0.1,0-0.1,0c-0.1,0-0.2,0-0.3,0.1c-0.1,0-0.3-0.1-0.5-0.1c0,0-0.1,0-0.3,0c-0.2,0-0.4,0-0.7,0.1c-0.6,0.1-1.4,0.2-2.2,0.3
      c-1.6,0.3-3.1,0.9-3.2,0.9c-0.6,0.2-0.9,0.9-0.6,1.5s0.9,0.9,1.5,0.6c-0.1,0,1.3-0.4,2.7-0.5c0.7-0.1,1.4-0.1,1.9-0.1
      c0.2,0,0.5,0,0.7,0c0.2,0,0.3,0,0.3,0c0,0,0.1,0,0.1,0c0.1,0,0.2,0,0.3-0.1c0.1,0,0.3,0.1,0.4,0.1c0,0,0.1,0,0.3,0
      c0.2,0,0.4,0,0.7,0c0.5,0,1.2,0,1.9,0.1c1.4,0.1,2.8,0.5,2.7,0.5c0.6,0.2,1.2-0.1,1.5-0.6C137.5,108.6,137.2,107.9,136.6,107.7z"
      />
    <path fill="#206B9E" d="M135.6,112.8c-0.1,0-1.3-0.5-2.6-0.8c-0.7-0.1-1.3-0.2-1.8-0.3c-0.2,0-0.4,0-0.6,0c-0.1,0-0.2,0-0.2,0
      c0,0-0.1,0-0.1,0c-0.1,0-0.2,0-0.3,0.1c-0.1,0-0.3-0.1-0.5-0.1c0,0-0.1,0-0.2,0c-0.1,0-0.3,0-0.6,0c-0.5,0-1.2,0.1-1.8,0.3
      c-1.3,0.2-2.6,0.7-2.6,0.8c-0.6,0.2-0.8,0.9-0.6,1.4c0.2,0.6,0.9,0.8,1.4,0.6c-0.1,0,1-0.3,2.2-0.4c0.6-0.1,1.2-0.1,1.6-0.1
      c0.2,0,0.4,0,0.5,0c0.1,0,0.2,0,0.2,0c0,0,0.1,0,0.1,0c0.1,0,0.2,0,0.3-0.1c0.1,0,0.3,0.1,0.4,0.1c0,0,0.1,0,0.2,0
      c0.1,0,0.3,0,0.5,0c0.4,0,1,0,1.6,0.1c1.1,0.1,2.2,0.4,2.2,0.4c0.6,0.2,1.2,0,1.4-0.6C136.4,113.7,136.1,113,135.6,112.8z"/>
    <path fill="#206B9E" d="M172.2,96.6c-2.4-5.6-6.4-13.1-12-16.6c-3.4-2.1-5.9-3-8.6-3.3c-5.9-5.3-13.4-8.3-21.4-8.3
      c-6.2,0-12,1.7-18,5.1c-2.5,1.5-5,2.7-7.3,3.8c-1,0.3-2.1,0.8-3.3,1.4c-4.6,1.8-8.9,2.7-12.5,2.7c-3.7,0-7.9-0.9-12.5-2.7
      c-1.2-0.6-2.3-1-3.3-1.4c-2.4-1.1-4.8-2.3-7.3-3.8c-5.9-3.4-11.8-5.1-18-5.1c-8,0-15.5,2.9-21.4,8.3c-2.7,0.3-5.2,1.2-8.6,3.3
      C12.5,83.5,8.4,91,6,96.6c-0.2,0.5-0.2,1,0,1.5c1.1,2.3,4.6,9.4,19.6,13.3c3.7,1,6,2.3,7.1,3c-0.6,2-2.2,6.7-5.9,12.5
      c-1.3,2.1-1,4,0,4.9c0.5,0.5,1.1,0.7,1.7,0.7c0.5,0,1.1-0.2,1.6-0.5c3.8-2.6,6.3-5.7,8-8.4c0.1,1.1,0.1,2.1,0.2,3.1
      c0.7,10.4,1.2,17.3,9.8,17.3c0.1,0,0.3,0,0.4-0.1c0.1,0,0.3,0.1,0.4,0.1c8.6,0,9.1-6.9,9.8-17.3c0.1-1,0.1-2,0.2-3.1
      c1.7,2.7,4.2,5.8,8,8.4c0.5,0.3,1.1,0.5,1.6,0.5c0.6,0,1.2-0.2,1.7-0.7c0.9-0.9,1.3-2.8,0-4.9c-3.8-5.9-5.4-10.5-5.9-12.5
      c1-0.7,3.1-1.8,6.4-2.8c0,0,0.1,0.1,0.1,0.1c6.1,3.8,12.1,5.7,18.5,5.7c6.4,0,12.5-1.9,18.5-5.7c0,0,0.1-0.1,0.1-0.1
      c3.3,0.9,5.4,2.1,6.4,2.8c-0.6,2-2.2,6.7-5.9,12.5c-1.3,2.1-1,4,0,4.9c0.5,0.5,1.1,0.7,1.7,0.7c0.5,0,1.1-0.2,1.6-0.5
      c3.8-2.6,6.3-5.7,8-8.4c0.1,1.1,0.1,2.1,0.2,3.1c0.7,10.4,1.2,17.3,9.8,17.3c0.1,0,0.3,0,0.4-0.1c0.1,0,0.3,0.1,0.4,0.1
      c8.6,0,9.1-6.9,9.8-17.3c0.1-1,0.1-2,0.2-3.1c1.7,2.7,4.2,5.8,8,8.4c0.5,0.3,1.1,0.5,1.6,0.5c0.6,0,1.2-0.2,1.7-0.7
      c0.9-0.9,1.3-2.8,0-4.9c-3.8-5.9-5.4-10.5-5.9-12.5c1.1-0.7,3.4-2,7.1-3c15-3.9,18.4-11,19.6-13.3
      C172.4,97.7,172.4,97.1,172.2,96.6z M130.3,71.8c5.8,0,11.4,1.7,16.1,5c-0.6,0-1.1,0-1.7,0.1c-2,0.1-4.3,0.2-7.1,0.2
      c-0.2,0-0.3,0-0.5,0.1c-1.9-0.7-4.1-1.1-6.9-1.1c-0.1,0-0.3,0-0.4,0.1c-0.1,0-0.3-0.1-0.4-0.1c-2.7,0-5,0.4-6.9,1.1
      c-0.2,0-0.3-0.1-0.5-0.1c-2.8,0-5.1-0.1-7.1-0.2c-0.6,0-1.1-0.1-1.6-0.1c0.2-0.1,0.3-0.2,0.5-0.3
      C119.3,73.3,124.7,71.8,130.3,71.8z M117,103.7c-1-0.9-3.6-3.4-3.6-6c0-1.8,0.6-3,1.3-4.6c0.1-0.2,0.2-0.5,0.4-0.8
      c1,0.8,2.2,1.3,3.1,1.7c1,0.4,2.5,1,2.6,1.6c0.2,0.9-1.6,4.1-2.5,5.7C117.9,102.1,117.4,103,117,103.7z M114.3,84.6
      c-0.2,0-0.4-0.1-0.6-0.1c-1.1-0.2-2.5-0.4-4-0.4c-0.7,0-1.5,0-2.1,0.1c-0.7,0.1-1.3,0.2-1.8,0.3c-0.5,0.1-1,0.2-1.3,0.3
      c-0.3,0.1-0.5,0.1-0.5,0.1c-0.5,0.2-0.8,0.7-0.7,1.2c0.1,0.6,0.7,1,1.3,0.8l0.1,0c0,0,0.2,0,0.4-0.1c0.3-0.1,0.6-0.1,1.1-0.2
      c0.5-0.1,1-0.1,1.6-0.1c0.6,0,1.2,0,1.8,0.1c1.2,0.1,2.5,0.4,3.4,0.7c0.1,0,0.1,0,0.2,0.1c0,0,0,0,0,0.1c-0.4,1.6-1,2.8-1.6,4
      c-0.8,1.7-1.7,3.5-1.7,6.2c0,5,5.2,9,5.4,9.2c0.1,0.1,0.3,0.2,0.4,0.2c-0.4,1.3-0.7,2.5-1,3.5c-1.5-0.8-3.7-1.8-6.8-2.6
      c-12-3.2-15.6-8.3-16.9-10.7c3.1-7,6.6-11.9,10.3-14.2c5.1-3.2,7.7-3,13.5-2.7c0.8,0,1.6,0.1,2.5,0.1
      C116.1,81.7,115.1,83.1,114.3,84.6z M89.1,113.8c-4.8,0-9.4-1.2-14-3.6c8.2-2.8,12-6.6,14-9.4c1.9,2.7,5.8,6.5,14,9.4
      C98.5,112.6,93.9,113.8,89.1,113.8z M63.4,93.1c0.8,1.6,1.3,2.8,1.3,4.6c0,2.4-2.3,4.9-3.6,6c-0.4-0.7-0.8-1.6-1.3-2.5
      c-0.9-1.5-2.7-4.7-2.5-5.7c0.1-0.5,1.5-1.1,2.6-1.6c0.9-0.4,2.1-0.9,3.1-1.7C63.2,92.6,63.3,92.9,63.4,93.1z M63.5,110.6
      c-0.2-1-0.5-2.2-1-3.5c0.1-0.1,0.3-0.1,0.4-0.2c0.2-0.2,5.4-4.2,5.4-9.2c0-2.7-0.9-4.4-1.7-6.2c-0.6-1.2-1.2-2.4-1.6-4
      c0,0,0,0,0-0.1c0.1,0,0.1,0,0.2-0.1c0.9-0.3,2.1-0.6,3.4-0.7c0.6-0.1,1.2-0.1,1.8-0.1c0.6,0,1.1,0,1.6,0.1c0.5,0,0.8,0.1,1.1,0.2
      c0.3,0.1,0.4,0.1,0.4,0.1l0.1,0c0.5,0.1,1.1-0.2,1.2-0.7c0.2-0.6-0.1-1.2-0.7-1.3c0,0-0.2-0.1-0.5-0.1c-0.3-0.1-0.7-0.2-1.3-0.3
      c-0.5-0.1-1.2-0.2-1.8-0.3c-0.7-0.1-1.4-0.1-2.1-0.1c-1.5,0-2.9,0.2-4,0.4c-0.2,0-0.4,0.1-0.6,0.1c-0.8-1.5-1.8-2.9-3-4.1
      c0.9,0,1.7-0.1,2.5-0.1c5.8-0.3,8.4-0.4,13.5,2.7c3.6,2.3,7.2,7.2,10.3,14.2c-1.3,2.4-4.9,7.5-16.9,10.7
      C67.2,108.8,65,109.8,63.5,110.6z M89.1,84.7c1.8,0,3.8-0.2,5.8-0.6c-2.3,2.7-4.2,5.9-5.8,8.9c-1.5-3.1-3.4-6.3-5.8-8.9
      C85.4,84.5,87.3,84.7,89.1,84.7z M64.3,76.4c0.2,0.1,0.3,0.2,0.5,0.3c-0.5,0-1.1,0-1.6,0.1c-2,0.1-4.3,0.2-7.1,0.2
      c-0.2,0-0.3,0-0.5,0.1c-1.9-0.7-4.1-1.1-6.9-1.1c-0.1,0-0.3,0-0.4,0.1c-0.1,0-0.3-0.1-0.4-0.1c-2.7,0-5,0.4-6.9,1.1
      C41,77,40.8,77,40.6,77c-2.8,0-5.1-0.1-7.1-0.2c-0.6,0-1.2-0.1-1.7-0.1c4.7-3.2,10.3-5,16.1-5C53.6,71.8,58.9,73.3,64.3,76.4z
       M9.6,97.3c3.1-7,6.6-11.9,10.3-14.2c5.1-3.2,7.7-3,13.5-2.7c0.8,0,1.6,0.1,2.5,0.1c-1.2,1.3-2.2,2.7-3,4.1
      c-0.2,0-0.4-0.1-0.6-0.1c-1.1-0.2-2.5-0.4-4-0.4c-0.7,0-1.5,0-2.1,0.1c-0.7,0.1-1.3,0.2-1.8,0.3c-0.5,0.1-1,0.2-1.3,0.3
      c-0.3,0.1-0.5,0.1-0.5,0.1c-0.5,0.2-0.8,0.7-0.7,1.2c0.1,0.6,0.7,1,1.3,0.8l0.1,0c0,0,0.2,0,0.4-0.1c0.3-0.1,0.6-0.1,1.1-0.2
      c0.5-0.1,1-0.1,1.6-0.1c0.6,0,1.2,0,1.8,0.1c1.2,0.1,2.5,0.4,3.4,0.7c0.1,0,0.1,0,0.2,0.1c0,0,0,0,0,0.1c-0.4,1.6-1,2.8-1.6,4
      c-0.8,1.7-1.7,3.5-1.7,6.2c0,5,5.2,9,5.4,9.2c0.1,0.1,0.3,0.2,0.4,0.2c-0.4,1.3-0.7,2.5-1,3.5c-1.5-0.8-3.7-1.8-6.8-2.6
      C14.6,104.8,11,99.7,9.6,97.3z M35.6,103.7c-1-0.9-3.6-3.4-3.6-6c0-1.8,0.6-3,1.3-4.6c0.1-0.2,0.2-0.5,0.4-0.8
      c1,0.8,2.2,1.3,3.1,1.7c1,0.4,2.5,1,2.6,1.6c0.2,0.9-1.6,4.1-2.5,5.7C36.4,102.1,36,103,35.6,103.7z M29.9,128
      c3.3-5.3,4.9-9.5,5.7-12c0.6,0.4,1.2,1.1,1.6,1.9C36.4,119.9,34.2,124.4,29.9,128z M55.1,126.4c-0.8,11.5-1.4,14-6.3,14
      c-0.1,0-0.3,0-0.4,0.1c-0.1,0-0.3-0.1-0.4-0.1c-4.8,0-5.5-2.5-6.3-14c-0.1-2.1-0.3-4.5-0.5-7.1c-0.4-3.9-2.9-5.9-4.6-6.8
      c0.3-1.5,0.9-4.1,2-6.7c0.3-0.7,0.9-1.7,1.5-2.8c2-3.5,3.3-6.1,2.9-8.2c-0.5-2.3-2.7-3.3-4.7-4.1c-2.4-1-3.1-1.5-3-2.6
      c0-0.2,0.1-0.4,0.1-0.6c2.4-4.9,5.6-8.1,12.7-8.1c0.1,0,0.3,0,0.4-0.1c0.1,0,0.3,0.1,0.4,0.1c7.1,0,10.2,3.2,12.7,8.1
      c0,0.2,0.1,0.4,0.1,0.6c0.1,1-0.6,1.5-3,2.6c-2,0.8-4.2,1.8-4.7,4.1c-0.5,2,0.9,4.7,2.9,8.2c0.6,1.1,1.2,2.1,1.5,2.8
      c1.1,2.7,1.7,5.2,2,6.7c-1.7,0.9-4.3,2.9-4.6,6.8C55.4,121.9,55.2,124.3,55.1,126.4z M59.6,118c0.4-0.9,1-1.5,1.6-1.9
      c0.8,2.4,2.4,6.7,5.7,12C62.5,124.4,60.4,119.9,59.6,118z M111.3,128c3.3-5.3,4.9-9.5,5.7-12c0.6,0.4,1.2,1.1,1.6,1.9
      C117.9,119.9,115.7,124.4,111.3,128z M136.5,126.4c-0.8,11.5-1.4,14-6.2,14c-0.1,0-0.3,0-0.4,0.1c-0.1,0-0.3-0.1-0.4-0.1
      c-4.8,0-5.5-2.5-6.2-14c-0.1-2.1-0.3-4.5-0.5-7.1c-0.4-3.9-2.9-5.9-4.6-6.8c0.3-1.5,0.9-4.1,2-6.7c0.3-0.7,0.9-1.7,1.5-2.8
      c2-3.5,3.3-6.1,2.9-8.2c-0.5-2.3-2.7-3.3-4.7-4.1c-2.5-1-3.1-1.5-3-2.6c0-0.2,0.1-0.4,0.1-0.6c2.4-4.9,5.6-8.1,12.7-8.1
      c0.1,0,0.3,0,0.4-0.1c0.1,0,0.3,0.1,0.4,0.1c7.1,0,10.2,3.2,12.7,8.1c0,0.2,0.1,0.4,0.1,0.6c0.1,1-0.6,1.5-3,2.6
      c-2,0.8-4.2,1.8-4.7,4.1c-0.5,2,0.9,4.7,2.9,8.2c0.6,1.1,1.2,2.1,1.5,2.8c1.1,2.7,1.7,5.2,2,6.7c-1.7,0.9-4.3,2.9-4.6,6.8
      C136.8,121.9,136.6,124.3,136.5,126.4z M142.6,103.7c-0.4-0.7-0.8-1.6-1.3-2.5c-0.9-1.5-2.7-4.7-2.5-5.7c0.1-0.5,1.5-1.1,2.6-1.6
      c0.9-0.4,2.1-0.9,3.1-1.7c0.1,0.3,0.2,0.5,0.4,0.8c0.8,1.6,1.3,2.8,1.3,4.6C146.2,100.1,143.9,102.6,142.6,103.7z M141,118
      c0.4-0.9,1-1.5,1.6-1.9c0.8,2.4,2.4,6.7,5.7,12C144,124.4,141.8,119.9,141,118z M151.7,108c-3,0.8-5.3,1.8-6.8,2.6
      c-0.2-1-0.5-2.2-1-3.5c0.1-0.1,0.3-0.1,0.4-0.2c0.2-0.2,5.4-4.2,5.4-9.2c0-2.7-0.9-4.4-1.7-6.2c-0.6-1.2-1.2-2.4-1.6-4
      c0,0,0,0,0-0.1c0.1,0,0.1,0,0.2-0.1c0.9-0.3,2.1-0.6,3.4-0.7c0.6-0.1,1.2-0.1,1.8-0.1c0.6,0,1.1,0,1.6,0.1c0.5,0,0.8,0.1,1.1,0.2
      c0.3,0.1,0.4,0.1,0.4,0.1l0.1,0c0.5,0.1,1.1-0.2,1.2-0.7c0.2-0.6-0.1-1.2-0.7-1.3c0,0-0.2-0.1-0.5-0.1c-0.3-0.1-0.7-0.2-1.3-0.3
      c-0.5-0.1-1.2-0.2-1.8-0.3c-0.7-0.1-1.4-0.1-2.1-0.1c-1.5,0-2.9,0.2-4,0.4c-0.2,0-0.4,0.1-0.6,0.1c-0.8-1.5-1.8-2.9-3-4.1
      c0.9,0,1.7-0.1,2.5-0.1c5.8-0.3,8.4-0.4,13.5,2.7c3.6,2.3,7.2,7.2,10.3,14.2C167.3,99.7,163.7,104.8,151.7,108z"/>
    <path fill="#206B9E" d="M140.1,96.8c0.5,1.2,1.9,1.7,3.1,1.2c1.2-0.5,1.7-1.9,1.2-3.1L140.1,96.8z"/>
    <path fill="#206B9E" d="M119.6,96.8l-4.3-1.9c-0.5,1.2,0,2.6,1.2,3.1C117.7,98.5,119.1,98,119.6,96.8z"/>
  </g>
</g>
</svg>